<svg width="35" height="35" viewBox="0 0 35 35" fill="none" xmlns="http://www.w3.org/2000/svg">
<rect x="0.5" y="0.5" width="34" height="34" rx="1.5" fill="#0F0F0F"/>
<rect x="0.5" y="0.5" width="34" height="34" rx="1.5" stroke="#DDDDDD"/>
<path d="M16.8757 24.7913V20.208H18.1256V21.8747H24.7923V23.1246H18.1256V24.7913H16.8757ZM10.209 23.1246V21.8747H14.7923V23.1246H10.209ZM13.5423 19.7913V18.1246H10.209V16.8747H13.5423V15.208H14.7923V19.7913H13.5423ZM16.8757 18.1246V16.8747H24.7923V18.1246H16.8757ZM20.209 14.7913V10.208H21.4589V11.8747H24.7923V13.1246H21.4589V14.7913H20.209ZM10.209 13.1246V11.8747H18.1256V13.1246H10.209Z" fill="white"/>
</svg>
