<svg width="28" height="28" viewBox="0 0 28 28" fill="none" xmlns="http://www.w3.org/2000/svg">
<path d="M14.0004 26.2499C11.7254 26.2499 9.66091 25.6867 7.80694 24.5605C5.95299 23.4342 4.49878 21.925 3.44431 20.0329V23.5127H1.69434V17.0961H8.11097V18.846H4.79714C5.64074 20.5452 6.88743 21.9123 8.53722 22.9474C10.187 23.9824 12.0081 24.4999 14.0004 24.4999C15.4288 24.4999 16.7686 24.2359 18.0198 23.7079C19.271 23.18 20.3662 22.4594 21.3055 21.5463C22.2448 20.6331 22.9991 19.5547 23.5682 18.311C24.1373 17.0673 24.4443 15.7275 24.4892 14.2916H26.2391C26.2017 15.9489 25.8551 17.5029 25.1992 18.9538C24.5434 20.4046 23.6639 21.6723 22.5608 22.7566C21.4577 23.841 20.1714 24.6944 18.7018 25.3166C17.2323 25.9388 15.6651 26.2499 14.0004 26.2499ZM1.76165 13.7083C1.81402 12.0136 2.17187 10.439 2.83522 8.98441C3.49857 7.52983 4.38552 6.26409 5.49609 5.18718C6.60668 4.11026 7.89113 3.26817 9.34945 2.6609C10.8078 2.05363 12.3581 1.75 14.0004 1.75C16.253 1.75 18.3174 2.31502 20.1938 3.44505C22.0702 4.57508 23.5245 6.09738 24.5565 8.01194V4.48723H26.3065V10.9038H19.8898V9.1539H23.2036C22.3825 7.48463 21.1451 6.125 19.4916 5.075C17.8381 4.02496 16.0077 3.49994 14.0004 3.49994C12.6019 3.49994 11.2789 3.76019 10.0315 4.2807C8.78406 4.80121 7.68695 5.5143 6.74014 6.41996C5.79335 7.32563 5.02979 8.4003 4.44945 9.64399C3.86911 10.8877 3.5565 12.2424 3.51162 13.7082L1.76165 13.7083Z" fill="white"/>
</svg>
